<svg id="Layer_1" data-name="Layer 1" xmlns="http://www.w3.org/2000/svg" xmlns:xlink="http://www.w3.org/1999/xlink" viewBox="0 0 477 96"><defs><style>.cls-1{fill:url(#linear-gradient);}.cls-2{fill:url(#linear-gradient-2);}.cls-3{fill:#17223a;}.cls-4{fill:#816d4d;}</style><linearGradient id="linear-gradient" x1="27.83" y1="38.67" x2="72.93" y2="83.77" gradientUnits="userSpaceOnUse"><stop offset="0" stop-color="#c1a67f"/><stop offset="1" stop-color="#72562f"/></linearGradient><linearGradient id="linear-gradient-2" x1="50.51" y1="15.99" x2="95.61" y2="61.09" xlink:href="#linear-gradient"/></defs><title>Artboard 2</title><path class="cls-1" d="M.8,86.11q0-20.5,0-41c.14-1.21.26-2.42.43-3.62A46.1,46.1,0,0,1,12.58,16.74,46.07,46.07,0,0,1,39.76,1.53C41.53,1.22,43.33,1,45.11.8h5.52c1.24.15,2.49.27,3.72.45A46,46,0,0,1,78.86,12.47a46.06,46.06,0,0,1,15.35,27.3c.31,1.77.49,3.56.72,5.34v41a2.22,2.22,0,0,0-.16.41,9.74,9.74,0,0,1-5.09,7.11,24.71,24.71,0,0,1-3.57,1.3H9.63a3.61,3.61,0,0,0-.5-.17A9.43,9.43,0,0,1,2.6,90.45,28.06,28.06,0,0,1,.8,86.11ZM71.64,89.4c0-.25.06-.43.06-.61,0-10.35,0-20.71,0-31.06a9.31,9.31,0,0,0-5.27-8.53,12.31,12.31,0,0,0-5.25-1.1A12.09,12.09,0,0,1,53,44.26a12.6,12.6,0,0,1,5.57-20.78c.42-.12.8-.15.8-.77,0-4.72,0-9.44,0-14.15a1,1,0,0,0-.57-.72A36.28,36.28,0,0,0,43.54,6.7a25.89,25.89,0,0,0-15.05,8,26.16,26.16,0,0,0-7.3,20.11,25.23,25.23,0,0,0,4.69,13.52,26.31,26.31,0,0,0,21.4,11.53c2.42.09,3.35,1.08,3.35,3.49q0,12.59,0,25.18c0,.29,0,.58,0,.88Zm5.64-11.85H89.38c0-.2,0-.32,0-.44,0-9.9.08-19.79,0-29.69A18.65,18.65,0,0,0,82.07,32.7a15.89,15.89,0,0,0-4.8-2.77Zm-58-59.76c-.21.19-.4.35-.57.52A41.15,41.15,0,0,0,6.33,48.1c0,9.49,0,19,0,28.48,0,.32,0,.64,0,1h9.24c0-.35,0-.62,0-.89,0-9.19,0-18.38,0-27.57,0-2.23.31-4.45.47-6.68a11.53,11.53,0,0,0,.15-2.88,32.19,32.19,0,0,1,.84-16C17.66,21.62,18.51,19.76,19.28,17.79ZM71.66,28.58c-.59,0-1.11-.09-1.63-.09-2.85,0-5.7-.07-8.54.09a7,7,0,0,0-6.14,8.9c1,3.27,3.49,5.07,7.35,5.21a14.75,14.75,0,0,1,8.36,2.91,6.8,6.8,0,0,0,.59.34Zm-50.53,49h9.15a2.24,2.24,0,0,0,.07-.34c0-5.48,0-11,0-16.43a1.36,1.36,0,0,0-.55-.93,33.18,33.18,0,0,1-8.21-8.06,3.21,3.21,0,0,0-.44-.41ZM83.61,26.92A41,41,0,0,0,65,10V23C71.58,22.66,77.93,23.16,83.61,26.92ZM35.91,77.56h9.17V65.5l-9.17-2.16ZM77.26,89.42c2.52,0,4.94,0,7.35,0a4.81,4.81,0,0,0,4.67-6.2h-12ZM21.13,83.19v6.19H30.3V83.19Zm14.78,0v6.17H45V83.18Zm-29.58,0c0,.7,0,1.31,0,1.92a4.49,4.49,0,0,0,3.91,4.22c1.72.17,3.47,0,5.25,0V83.19Z"/><path class="cls-2" d="M50.36,13.08a2.75,2.75,0,0,1-.06,5.49,2.81,2.81,0,0,1-2.73-2.79A2.75,2.75,0,0,1,50.36,13.08Z"/><path class="cls-3" d="M148.17,61.75a9.21,9.21,0,0,1,1.74,5.67,8.94,8.94,0,0,1-1.59,5.28,10.17,10.17,0,0,1-4.54,3.49,18,18,0,0,1-7,1.23H118.62V40.9h17.75q5.75,0,9.13,2.57a8.24,8.24,0,0,1,3.39,6.93,8.54,8.54,0,0,1-1.49,5,8.38,8.38,0,0,1-4.21,3.13A9.1,9.1,0,0,1,148.17,61.75ZM128,55.21h6.72a7.19,7.19,0,0,0,3.9-.82,2.92,2.92,0,0,0,1.23-2.62,3.08,3.08,0,0,0-1.26-2.72,6.87,6.87,0,0,0-3.87-.87H128Zm11.67,14.06a3.37,3.37,0,0,0,1.21-2.92,3.46,3.46,0,0,0-1.18-3,6.93,6.93,0,0,0-4-.87H128v7.64h7.7A6.94,6.94,0,0,0,139.68,69.27Z"/><path class="cls-3" d="M164.9,77.43V40.9h9.65V69.63H190v7.8Z"/><path class="cls-4" d="M233,77.43l-3.23-7.54H213.53l-3.23,7.54h-9.65L217.74,40.9h7.59l17.14,36.53ZM216.66,62.65h10l-5-11.54Z"/><path class="cls-3" d="M261.68,75.55A16,16,0,0,1,255.17,69a20.53,20.53,0,0,1-2.28-9.85,20.26,20.26,0,0,1,2.28-9.77,16.07,16.07,0,0,1,6.52-6.57,20.24,20.24,0,0,1,9.93-2.33,22.64,22.64,0,0,1,7,1.08A14.68,14.68,0,0,1,284,44.44l-2.92,6.82A15.56,15.56,0,0,0,271.82,48a8.37,8.37,0,0,0-6.77,2.8q-2.36,2.8-2.36,8.29T265,67.47a8.33,8.33,0,0,0,6.77,2.82,15.56,15.56,0,0,0,9.24-3.23L284,73.89a14.68,14.68,0,0,1-5.41,2.92,22.64,22.64,0,0,1-7,1.08A20.23,20.23,0,0,1,261.68,75.55Z"/><path class="cls-3" d="M303.21,73.86q-4.11-4-4.1-11.83V40.9h9.39v21.5a9.16,9.16,0,0,0,1.77,6.05,6.23,6.23,0,0,0,5.05,2.1,6.07,6.07,0,0,0,5-2.13,9.28,9.28,0,0,0,1.74-6V40.9h9.49V62q0,7.7-4.18,11.77t-12,4.08Q307.32,77.89,303.21,73.86Z"/><path class="cls-3" d="M377.61,40.9h7.49V77.43h-8.41l-.05-16.73-6.93,16.73H363.6l-7-16.52V77.43h-8.36V40.9h7.54l10.93,24.93Z"/><path class="cls-3" d="M402.08,77.43V40.9h26.06v7.39H411.47v6.88h15.6v7.39h-15.6V70h16.67v7.39Z"/><path class="cls-3" d="M466.93,40.9H476V77.43h-7.13L452.31,56.7V77.43h-9V40.9h7l16.57,20.63Z"/></svg>