<svg id="Layer_1" data-name="Layer 1" xmlns="http://www.w3.org/2000/svg" xmlns:xlink="http://www.w3.org/1999/xlink" viewBox="0 0 477 96"><defs><style>.cls-1{fill:url(#linear-gradient);}.cls-2{fill:url(#linear-gradient-2);}.cls-3{font-size:51.31px;fill:#16213a;font-family:Muli-Black, Muli;letter-spacing:0.2em;}.cls-4{letter-spacing:0.2em;}.cls-5{fill:#816d4d;letter-spacing:0.18em;}</style><linearGradient id="linear-gradient" x1="27.83" y1="38.67" x2="72.93" y2="83.77" gradientUnits="userSpaceOnUse"><stop offset="0" stop-color="#c1a67f"/><stop offset="1" stop-color="#72562f"/></linearGradient><linearGradient id="linear-gradient-2" x1="50.51" y1="15.99" x2="95.61" y2="61.09" xlink:href="#linear-gradient"/></defs><title>Artboard 2</title><path class="cls-1" d="M.8,86.11q0-20.5,0-41c.14-1.21.26-2.42.43-3.62A46.1,46.1,0,0,1,12.58,16.74,46.07,46.07,0,0,1,39.76,1.53C41.53,1.22,43.33,1,45.11.8h5.52c1.24.15,2.49.27,3.72.45A46,46,0,0,1,78.86,12.47a46.06,46.06,0,0,1,15.35,27.3c.31,1.77.49,3.56.72,5.34v41a2.22,2.22,0,0,0-.16.41,9.74,9.74,0,0,1-5.09,7.11,24.71,24.71,0,0,1-3.57,1.3H9.63a3.61,3.61,0,0,0-.5-.17A9.43,9.43,0,0,1,2.6,90.45,28.06,28.06,0,0,1,.8,86.11ZM71.64,89.4c0-.25.06-.43.06-.61,0-10.35,0-20.71,0-31.06a9.31,9.31,0,0,0-5.27-8.53,12.31,12.31,0,0,0-5.25-1.1A12.09,12.09,0,0,1,53,44.26a12.6,12.6,0,0,1,5.57-20.78c.42-.12.8-.15.8-.77,0-4.72,0-9.44,0-14.15a1,1,0,0,0-.57-.72A36.28,36.28,0,0,0,43.54,6.7a25.89,25.89,0,0,0-15.05,8,26.16,26.16,0,0,0-7.3,20.11,25.23,25.23,0,0,0,4.69,13.52,26.31,26.31,0,0,0,21.4,11.53c2.42.09,3.35,1.08,3.35,3.49q0,12.59,0,25.18c0,.29,0,.58,0,.88Zm5.64-11.85H89.38c0-.2,0-.32,0-.44,0-9.9.08-19.79,0-29.69A18.65,18.65,0,0,0,82.07,32.7a15.89,15.89,0,0,0-4.8-2.77Zm-58-59.76c-.21.19-.4.35-.57.52A41.15,41.15,0,0,0,6.33,48.1c0,9.49,0,19,0,28.48,0,.32,0,.64,0,1h9.24c0-.35,0-.62,0-.89,0-9.19,0-18.38,0-27.57,0-2.23.31-4.45.47-6.68a11.53,11.53,0,0,0,.15-2.88,32.19,32.19,0,0,1,.84-16C17.66,21.62,18.51,19.76,19.28,17.79ZM71.66,28.58c-.59,0-1.11-.09-1.63-.09-2.85,0-5.7-.07-8.54.09a7,7,0,0,0-6.14,8.9c1,3.27,3.49,5.07,7.35,5.21a14.75,14.75,0,0,1,8.36,2.91,6.8,6.8,0,0,0,.59.34Zm-50.53,49h9.15a2.24,2.24,0,0,0,.07-.34c0-5.48,0-11,0-16.43a1.36,1.36,0,0,0-.55-.93,33.18,33.18,0,0,1-8.21-8.06,3.21,3.21,0,0,0-.44-.41ZM83.61,26.92A41,41,0,0,0,65,10V23C71.58,22.66,77.93,23.16,83.61,26.92ZM35.91,77.56h9.17V65.5l-9.17-2.16ZM77.26,89.42c2.52,0,4.94,0,7.35,0a4.81,4.81,0,0,0,4.67-6.2h-12ZM21.13,83.19v6.19H30.3V83.19Zm14.78,0v6.17H45V83.18Zm-29.58,0c0,.7,0,1.31,0,1.92a4.49,4.49,0,0,0,3.91,4.22c1.72.17,3.47,0,5.25,0V83.19Z"/><path class="cls-2" d="M50.36,13.08a2.75,2.75,0,0,1-.06,5.49,2.81,2.81,0,0,1-2.73-2.79A2.75,2.75,0,0,1,50.36,13.08Z"/><text class="cls-3" transform="translate(115.33 77.43)">B<tspan class="cls-4" x="46.28" y="0">L</tspan><tspan class="cls-5" x="86.5" y="0">A</tspan><tspan x="135.24" y="0">CUMEN</tspan></text></svg>